<svg width="1920" height="90" viewBox="0 0 1920 90" fill="none" xmlns="http://www.w3.org/2000/svg">
<mask id="path-1-inside-1_2_454" fill="white">
<path d="M0 0H1920V90H0V0Z"/>
</mask>
<path d="M0 0H1920V90H0V0Z" fill="white"/>
<path d="M0 90.5H6V89.5H0V90.5ZM14 90.5H26V89.5H14V90.5ZM34 90.5H46V89.5H34V90.5ZM54 90.5H66V89.5H54V90.5ZM74 90.5H86V89.5H74V90.5ZM94 90.5H106V89.5H94V90.5ZM114 90.5H126V89.5H114V90.5ZM134 90.5H146V89.5H134V90.5ZM154 90.5H166V89.5H154V90.5ZM174 90.5H186V89.5H174V90.5ZM194 90.5H206V89.5H194V90.5ZM214 90.5H226V89.5H214V90.5ZM234 90.5H246V89.5H234V90.5ZM254 90.5H266V89.5H254V90.5ZM274 90.5H286V89.5H274V90.5ZM294 90.5H306V89.5H294V90.5ZM314 90.5H326V89.5H314V90.5ZM334 90.5H346V89.5H334V90.5ZM354 90.5H366V89.5H354V90.5ZM374 90.5H386V89.5H374V90.5ZM394 90.5H406V89.5H394V90.5ZM414 90.5H426V89.5H414V90.5ZM434 90.5H446V89.5H434V90.5ZM454 90.5H466V89.5H454V90.5ZM474 90.5H486V89.5H474V90.5ZM494 90.5H506V89.5H494V90.5ZM514 90.5H526V89.5H514V90.5ZM534 90.5H546V89.5H534V90.5ZM554 90.5H566V89.5H554V90.5ZM574 90.5H586V89.5H574V90.5ZM594 90.5H606V89.5H594V90.5ZM614 90.5H626V89.5H614V90.5ZM634 90.5H646V89.5H634V90.5ZM654 90.5H666V89.5H654V90.5ZM674 90.5H686V89.5H674V90.5ZM694 90.5H706V89.5H694V90.5ZM714 90.5H726V89.5H714V90.5ZM734 90.5H746V89.5H734V90.5ZM754 90.5H766V89.5H754V90.5ZM774 90.5H786V89.5H774V90.5ZM794 90.5H806V89.5H794V90.5ZM814 90.5H826V89.5H814V90.5ZM834 90.5H846V89.5H834V90.5ZM854 90.5H866V89.5H854V90.5ZM874 90.5H886V89.5H874V90.5ZM894 90.5H906V89.5H894V90.5ZM914 90.5H926V89.5H914V90.5ZM934 90.5H946V89.5H934V90.5ZM954 90.5H966V89.5H954V90.5ZM974 90.5H986V89.5H974V90.5ZM994 90.5H1006V89.5H994V90.5ZM1014 90.5H1026V89.5H1014V90.5ZM1034 90.5H1046V89.5H1034V90.5ZM1054 90.5H1066V89.5H1054V90.5ZM1074 90.5H1086V89.5H1074V90.5ZM1094 90.5H1106V89.5H1094V90.5ZM1114 90.5H1126V89.5H1114V90.5ZM1134 90.5H1146V89.5H1134V90.5ZM1154 90.5H1166V89.5H1154V90.5ZM1174 90.5H1186V89.5H1174V90.5ZM1194 90.5H1206V89.5H1194V90.5ZM1214 90.5H1226V89.5H1214V90.5ZM1234 90.5H1246V89.5H1234V90.5ZM1254 90.5H1266V89.5H1254V90.5ZM1274 90.5H1286V89.5H1274V90.5ZM1294 90.5H1306V89.5H1294V90.5ZM1314 90.5H1326V89.5H1314V90.5ZM1334 90.5H1346V89.5H1334V90.5ZM1354 90.5H1366V89.5H1354V90.5ZM1374 90.5H1386V89.5H1374V90.5ZM1394 90.5H1406V89.5H1394V90.5ZM1414 90.5H1426V89.5H1414V90.5ZM1434 90.5H1446V89.5H1434V90.5ZM1454 90.5H1466V89.5H1454V90.5ZM1474 90.5H1486V89.5H1474V90.5ZM1494 90.5H1506V89.5H1494V90.5ZM1514 90.5H1526V89.5H1514V90.5ZM1534 90.5H1546V89.5H1534V90.5ZM1554 90.5H1566V89.5H1554V90.5ZM1574 90.5H1586V89.5H1574V90.5ZM1594 90.5H1606V89.5H1594V90.5ZM1614 90.5H1626V89.5H1614V90.5ZM1634 90.5H1646V89.5H1634V90.5ZM1654 90.5H1666V89.5H1654V90.5ZM1674 90.5H1686V89.5H1674V90.5ZM1694 90.5H1706V89.5H1694V90.5ZM1714 90.5H1726V89.5H1714V90.5ZM1734 90.5H1746V89.5H1734V90.5ZM1754 90.5H1766V89.5H1754V90.5ZM1774 90.5H1786V89.5H1774V90.5ZM1794 90.5H1806V89.5H1794V90.5ZM1814 90.5H1826V89.5H1814V90.5ZM1834 90.5H1846V89.5H1834V90.5ZM1854 90.5H1866V89.5H1854V90.5ZM1874 90.5H1886V89.5H1874V90.5ZM1894 90.5H1906V89.5H1894V90.5ZM1914 90.5H1920V89.5H1914V90.5ZM0 91H6V89H0V91ZM14 91H26V89H14V91ZM34 91H46V89H34V91ZM54 91H66V89H54V91ZM74 91H86V89H74V91ZM94 91H106V89H94V91ZM114 91H126V89H114V91ZM134 91H146V89H134V91ZM154 91H166V89H154V91ZM174 91H186V89H174V91ZM194 91H206V89H194V91ZM214 91H226V89H214V91ZM234 91H246V89H234V91ZM254 91H266V89H254V91ZM274 91H286V89H274V91ZM294 91H306V89H294V91ZM314 91H326V89H314V91ZM334 91H346V89H334V91ZM354 91H366V89H354V91ZM374 91H386V89H374V91ZM394 91H406V89H394V91ZM414 91H426V89H414V91ZM434 91H446V89H434V91ZM454 91H466V89H454V91ZM474 91H486V89H474V91ZM494 91H506V89H494V91ZM514 91H526V89H514V91ZM534 91H546V89H534V91ZM554 91H566V89H554V91ZM574 91H586V89H574V91ZM594 91H606V89H594V91ZM614 91H626V89H614V91ZM634 91H646V89H634V91ZM654 91H666V89H654V91ZM674 91H686V89H674V91ZM694 91H706V89H694V91ZM714 91H726V89H714V91ZM734 91H746V89H734V91ZM754 91H766V89H754V91ZM774 91H786V89H774V91ZM794 91H806V89H794V91ZM814 91H826V89H814V91ZM834 91H846V89H834V91ZM854 91H866V89H854V91ZM874 91H886V89H874V91ZM894 91H906V89H894V91ZM914 91H926V89H914V91ZM934 91H946V89H934V91ZM954 91H966V89H954V91ZM974 91H986V89H974V91ZM994 91H1006V89H994V91ZM1014 91H1026V89H1014V91ZM1034 91H1046V89H1034V91ZM1054 91H1066V89H1054V91ZM1074 91H1086V89H1074V91ZM1094 91H1106V89H1094V91ZM1114 91H1126V89H1114V91ZM1134 91H1146V89H1134V91ZM1154 91H1166V89H1154V91ZM1174 91H1186V89H1174V91ZM1194 91H1206V89H1194V91ZM1214 91H1226V89H1214V91ZM1234 91H1246V89H1234V91ZM1254 91H1266V89H1254V91ZM1274 91H1286V89H1274V91ZM1294 91H1306V89H1294V91ZM1314 91H1326V89H1314V91ZM1334 91H1346V89H1334V91ZM1354 91H1366V89H1354V91ZM1374 91H1386V89H1374V91ZM1394 91H1406V89H1394V91ZM1414 91H1426V89H1414V91ZM1434 91H1446V89H1434V91ZM1454 91H1466V89H1454V91ZM1474 91H1486V89H1474V91ZM1494 91H1506V89H1494V91ZM1514 91H1526V89H1514V91ZM1534 91H1546V89H1534V91ZM1554 91H1566V89H1554V91ZM1574 91H1586V89H1574V91ZM1594 91H1606V89H1594V91ZM1614 91H1626V89H1614V91ZM1634 91H1646V89H1634V91ZM1654 91H1666V89H1654V91ZM1674 91H1686V89H1674V91ZM1694 91H1706V89H1694V91ZM1714 91H1726V89H1714V91ZM1734 91H1746V89H1734V91ZM1754 91H1766V89H1754V91ZM1774 91H1786V89H1774V91ZM1794 91H1806V89H1794V91ZM1814 91H1826V89H1814V91ZM1834 91H1846V89H1834V91ZM1854 91H1866V89H1854V91ZM1874 91H1886V89H1874V91ZM1894 91H1906V89H1894V91ZM1914 91H1920V89H1914V91Z" fill="#BEDADA" mask="url(#path-1-inside-1_2_454)"/>
</svg>
